<?xml version="1.0" standalone="no"?>
<!DOCTYPE svg PUBLIC "-//W3C//DTD SVG 20010904//EN"
 "http://www.w3.org/TR/2001/REC-SVG-20010904/DTD/svg10.dtd">
<svg version="1.0" xmlns="http://www.w3.org/2000/svg"
 width="256.000000pt" height="256.000000pt" viewBox="0 0 256.000000 256.000000"
 preserveAspectRatio="xMidYMid meet">

<g transform="translate(0.000000,256.000000) scale(0.100000,-0.100000)"
fill="#000000" stroke="none">
<path d="M600 2056 c-168 -57 -312 -107 -321 -111 -17 -6 -39 -46 -39 -69 0
-32 42 -64 110 -86 38 -12 70 -26 70 -30 0 -5 -30 -18 -67 -30 -66 -21 -113
-57 -113 -85 0 -8 5 -25 11 -39 12 -27 29 -35 179 -85 l85 -29 5 -409 c4 -367
7 -412 22 -436 10 -14 26 -31 35 -36 10 -5 157 -53 328 -107 259 -81 321 -97
375 -97 55 0 115 15 374 97 170 53 318 101 328 107 10 6 28 25 38 42 19 30 20
54 20 434 l0 401 83 27 c162 54 197 76 197 129 0 31 -41 63 -109 86 -39 14
-71 27 -71 30 0 4 26 14 58 24 73 23 100 41 113 73 14 37 -4 76 -44 95 -18 8
-165 59 -328 113 l-295 98 -182 -61 -182 -61 -177 60 c-98 32 -182 59 -188 59
-5 0 -147 -47 -315 -104z m450 -14 c63 -21 110 -41 104 -44 -5 -3 -141 -49
-301 -102 l-293 -98 -112 38 c-62 20 -117 39 -123 42 -10 6 558 200 590 201
12 1 72 -16 135 -37z m900 -60 c162 -54 290 -101 284 -104 -5 -3 -60 -22 -122
-42 l-112 -38 -293 98 c-160 53 -296 99 -302 102 -10 6 199 80 230 81 11 1
153 -43 315 -97z m-373 -119 c161 -54 293 -100 293 -103 0 -3 -133 -49 -295
-103 l-295 -99 -295 99 c-162 54 -295 100 -295 103 0 5 565 198 585 199 5 1
141 -43 302 -96z m-722 -239 c159 -53 293 -100 297 -103 5 -4 -46 -25 -112
-46 l-121 -39 -299 99 c-164 55 -297 102 -294 105 6 6 214 78 229 79 5 1 140
-42 300 -95z m1260 60 c60 -20 113 -39 117 -43 4 -4 -127 -51 -292 -106 l-299
-99 -120 39 c-66 21 -118 41 -115 44 6 7 573 199 589 200 5 1 59 -15 120 -35z
m-646 -269 l173 -57 147 47 c80 26 152 50 159 52 10 4 12 -42 10 -223 l-3
-229 -315 -96 -315 -97 -3 234 -2 234 -40 0 -40 0 -2 -233 -3 -234 -315 96
-315 96 -3 229 c-2 181 0 227 10 223 7 -2 79 -26 159 -52 l147 -47 178 60 c99
33 184 59 189 58 6 -2 88 -29 184 -61z m-544 -585 c165 -51 304 -95 308 -99 4
-4 6 -62 5 -128 l-3 -121 -305 95 c-168 52 -311 99 -317 105 -18 15 -18 249 0
243 6 -2 147 -45 312 -95z m1023 -146 c-7 -7 -146 -54 -308 -105 -162 -50
-301 -94 -308 -97 -10 -3 -12 23 -10 124 l3 128 315 97 315 96 3 -115 c2 -84
-1 -119 -10 -128z"/>
</g>
</svg>
